# xmcd CD database file
#
# Track frame offsets:
#	150
#	28121
#	75306
#	142195
#
# Disc length: 2979 seconds
#
# Revision: 0
# Processed by: cddbd v1.5.1PL0 Copyright (c) Steve Scherf et al.
# Submitted via: CDex 1.51
#
DISCID=2c0ba104
DTITLE=Kenny Barron/Gary Bartz - Live in Switzerland
DYEAR=1997
DGENRE=Jazz
TTITLE0=Quartet Blues (Bartz-Barron-Drummond-Riley)
TTITLE1=Well You Needn't (Monk)
TTITLE2=Twilight Song (Barron)
TTITLE3=I've Never Been In Love Before (Loesser)
EXTD=YEAR: 1997
EXTT0=
EXTT1=
EXTT2=
EXTT3=
PLAYORDER=
